<?xml version="1.0" encoding="UTF-8"?>
<svg xmlns="http://www.w3.org/2000/svg" xmlns:xlink="http://www.w3.org/1999/xlink" width="24pt" height="24pt" viewBox="0 0 24 24" version="1.1">
<g id="surface14498973">
<path style=" stroke:none;fill-rule:nonzero;fill:rgb(20%,20%,20%);fill-opacity:1;" d="M 12 4 C 9.664062 4 7.699219 5.25 6.429688 7.015625 C 2.886719 7.054688 0 9.945312 0 13.5 C 0 17.078125 2.921875 20 6.5 20 L 18.5 20 C 21.527344 20 24 17.527344 24 14.5 C 24 11.507812 21.578125 9.078125 18.597656 9.019531 C 17.730469 6.140625 15.152344 4 12 4 Z M 12 6 C 14.503906 6 16.554688 7.824219 16.933594 10.214844 L 17.082031 11.175781 L 18.050781 11.050781 C 18.273438 11.023438 18.414062 11 18.5 11 C 20.445312 11 22 12.554688 22 14.5 C 22 16.445312 20.445312 18 18.5 18 L 13 18 L 13 14 L 16 14 L 12 10 L 8 14 L 11 14 L 11 18 L 6.5 18 C 4.003906 18 2 15.996094 2 13.5 C 2 11.003906 4.003906 9 6.5 9 C 6.535156 9 6.617188 9.007812 6.75 9.011719 L 7.359375 9.042969 L 7.664062 8.515625 C 8.53125 7.011719 10.136719 6 12 6 Z M 12 6 "/>
</g>
</svg>
